<svg xmlns="http://www.w3.org/2000/svg" viewBox="0 0 512 512">
  <defs>
    <linearGradient id="g" x1="0" y1="0" x2="1" y2="1">
      <stop offset="0" stop-color="#f3a9bd"/>
      <stop offset="1" stop-color="#d8718f"/>
    </linearGradient>
  </defs>
  <rect width="512" height="512" rx="112" fill="url(#g)"/>
  <!-- dumbbell -->
  <g fill="#fff">
    <rect x="150" y="238" width="212" height="36" rx="18"/>
    <rect x="120" y="206" width="44" height="100" rx="20"/>
    <rect x="348" y="206" width="44" height="100" rx="20"/>
    <rect x="96" y="226" width="34" height="60" rx="16"/>
    <rect x="382" y="226" width="34" height="60" rx="16"/>
  </g>
  <!-- little heart -->
  <path d="M256 360c-46-30-78-55-78-92 0-23 18-40 40-40 16 0 30 9 38 24 8-15 22-24 38-24 22 0 40 17 40 40 0 37-32 62-78 92z" fill="#fff" opacity=".95"/>
</svg>
